<svg width="67" height="94" viewBox="0 0 67 94" fill="none" xmlns="http://www.w3.org/2000/svg">
<path d="M42.8496 61.6347L26.1618 63.711C25.7374 60.2998 25.5962 57.2667 25.7382 54.6117C25.9142 51.913 26.4728 49.4424 27.414 47.1996C28.3552 44.9569 29.7421 42.8161 31.5748 40.7774C33.2086 39.0389 34.5976 37.3899 35.7419 35.8305C36.8863 34.271 37.7181 32.7307 38.2374 31.2096C38.7567 29.6886 38.915 28.114 38.7125 26.4859C38.4617 24.4702 37.966 22.859 37.2253 21.6521C36.5235 20.4404 35.5719 19.5944 34.3706 19.1141C33.2032 18.5901 31.7861 18.4319 30.1193 18.6392C28.7626 18.8081 27.5244 19.2967 26.4047 20.1052C25.3238 20.9089 24.5019 22.0543 23.939 23.5414C23.3713 24.9898 23.1885 26.8429 23.3908 29.1008L3.67946 31.5534C3.07711 25.7631 3.77272 20.9136 5.76629 17.0047C7.79379 13.0522 10.7583 9.98698 14.6599 7.8089C18.5954 5.58724 23.1215 4.15808 28.2383 3.52144C33.8978 2.81727 38.8711 3.08416 43.1584 4.3221C47.4456 5.56004 50.8892 7.76895 53.4892 10.9488C56.0844 14.0899 57.6931 18.1607 58.3152 23.1612C58.73 26.4949 58.4522 29.4818 57.4816 32.1218C56.545 34.7182 55.1434 37.2151 53.2767 39.6124C51.4439 41.966 49.3784 44.5061 47.0803 47.2326C45.078 49.4893 43.7976 51.6955 43.2392 53.8513C42.6759 55.9683 42.5461 58.5627 42.8496 61.6347ZM25.9772 81.6838C25.6299 78.8929 26.3484 76.4417 28.1326 74.3302C29.912 72.18 32.4104 70.9047 35.6277 70.5044C38.8451 70.1041 41.5798 70.7282 43.8319 72.3769C46.0791 73.9867 47.3763 76.1871 47.7236 78.9781C48.0708 81.7691 47.3548 84.2397 45.5754 86.3899C43.7912 88.5014 41.2904 89.7572 38.073 90.1576C34.8556 90.5579 32.1233 89.9531 29.8761 88.3432C27.6241 86.6946 26.3244 84.4748 25.9772 81.6838Z" fill="url(#paint0_linear_9_191)"/>
<defs>
<linearGradient id="paint0_linear_9_191" x1="29.7628" y1="4.82758" x2="40.2578" y2="89.1772" gradientUnits="userSpaceOnUse">
<stop stop-color="#DF3030"/>
<stop offset="1" stop-color="#DD5454"/>
</linearGradient>
</defs>
</svg>
