<svg width="30" height="30" viewBox="0 0 30 30" fill="none" xmlns="http://www.w3.org/2000/svg">
<path d="M0.538751 29.5475C0.211772 29.2432 0.00717692 28.8089 0.00699916 28.3268L1.11682e-07 8.33202C-0.000333178 7.41112 0.745346 6.66449 1.66551 6.66405C2.58566 6.66382 3.33187 7.41001 3.33218 8.3309L3.33778 24.3147L27.1551 0.488287C27.8059 -0.162764 28.8611 -0.162764 29.5119 0.488287C30.1627 1.13934 30.1627 2.19494 29.5119 2.84599L5.70674 26.6601L21.6516 26.6651C22.5717 26.6654 23.3174 27.4122 23.3172 28.3331C23.3169 29.254 22.5706 30.0003 21.6505 30L1.80996 29.9937C1.35738 30.0292 0.89306 29.8805 0.538751 29.5475Z" fill="white"/>
</svg>
